<?xml version="1.0" standalone="no"?>
<!DOCTYPE svg PUBLIC "-//W3C//DTD SVG 20010904//EN"
 "http://www.w3.org/TR/2001/REC-SVG-20010904/DTD/svg10.dtd">
<svg version="1.0" xmlns="http://www.w3.org/2000/svg"
 width="800.000000pt" height="800.000000pt" viewBox="0 0 800.000000 800.000000"
 preserveAspectRatio="xMidYMid meet">

<g transform="translate(0.000000,800.000000) scale(0.100000,-0.100000)"
fill="#000000" stroke="none">
<path d="M3317 6569 c-183 -24 -357 -123 -566 -324 -267 -256 -464 -569 -576
-917 -68 -210 -85 -359 -57 -499 l14 -66 111 -6 c62 -3 146 -3 187 1 86 8 80
-4 60 127 -15 101 -7 189 31 333 75 285 236 595 431 827 155 186 318 326 479
414 l76 41 60 -43 c95 -71 162 -186 210 -364 25 -92 27 -111 27 -323 0 -174
-4 -246 -17 -320 -45 -239 -116 -491 -198 -700 l-49 -126 -67 -18 c-204 -54
-574 -219 -781 -350 -238 -150 -460 -342 -580 -502 -193 -257 -225 -507 -92
-728 47 -78 82 -103 171 -122 95 -20 335 -14 424 10 134 37 282 133 403 261
95 99 181 208 498 630 244 325 328 424 434 511 27 23 22 15 -21 -36 -337 -399
-639 -1046 -735 -1575 -25 -137 -26 -480 -1 -611 68 -369 233 -590 492 -660
81 -22 311 -30 417 -14 252 37 471 162 703 401 136 141 245 286 363 483 144
239 347 663 340 710 -2 14 -15 24 -43 32 -51 16 -228 16 -279 1 -38 -12 -41
-16 -88 -127 -114 -266 -260 -544 -380 -722 -188 -281 -446 -530 -651 -630
-108 -54 -125 -56 -186 -22 -153 83 -277 315 -315 593 -39 279 -6 610 90 908
l36 111 102 6 c55 3 326 13 601 22 354 11 503 19 511 27 37 39 56 262 35 408
-35 241 -197 582 -374 791 l-57 66 73 65 c209 186 483 349 718 428 72 24 103
29 184 29 l97 0 39 -39 c37 -36 39 -42 39 -99 0 -58 1 -60 33 -73 21 -10 74
-14 162 -14 164 0 185 10 185 83 -1 123 -97 209 -273 246 -348 71 -805 -27
-1184 -256 -51 -31 -93 -55 -93 -53 0 5 382 323 585 487 168 135 484 380 637
493 41 30 64 53 58 59 -15 15 -98 25 -215 25 -87 1 -118 -3 -145 -17 -99 -50
-794 -602 -1247 -989 -112 -95 -207 -173 -212 -173 -6 0 -3 17 6 38 38 90 117
340 153 487 66 267 74 334 74 575 0 201 -2 222 -27 314 -80 298 -220 446 -451
476 -87 11 -296 11 -389 -1z m64 -2297 c-195 -396 -509 -852 -754 -1095 -68
-67 -190 -157 -214 -157 -7 0 -28 33 -47 73 -91 189 -57 401 102 622 93 129
299 317 487 442 165 110 480 280 494 267 3 -2 -28 -70 -68 -152z m1033 -223
c102 -204 156 -392 156 -540 l0 -60 -142 6 c-79 2 -246 7 -373 10 -126 3 -231
7 -233 9 -5 6 120 252 179 352 72 122 160 254 233 347 l61 77 23 -27 c13 -16
56 -94 96 -174z"/>
<path d="M5330 4719 c-243 -24 -481 -69 -512 -96 -23 -21 -17 -29 77 -111 58
-50 90 -86 112 -128 48 -93 48 -110 2 -247 -49 -142 -61 -235 -34 -257 15 -13
20 -11 41 13 38 44 65 149 71 272 l5 110 79 165 c44 90 87 172 95 182 18 19
11 38 -12 38 -14 0 -30 -31 -141 -270 l-35 -75 -18 48 c-24 63 -73 120 -153
182 -36 28 -65 54 -63 59 10 40 421 99 696 100 176 1 220 -5 220 -30 0 -24 34
-12 38 13 3 18 -4 23 -48 32 -58 13 -293 12 -420 0z m-284 -625 c-7 -69 -31
-152 -48 -169 -17 -16 -2 86 24 166 12 38 24 69 26 69 3 0 2 -30 -2 -66z"/>
<path d="M5330 4590 c-11 -16 -34 -60 -49 -98 -16 -37 -40 -87 -55 -110 -59
-93 -91 -217 -62 -241 19 -16 17 -19 45 94 31 123 48 164 91 220 49 63 122
118 153 113 29 -4 35 -54 11 -100 -43 -85 -134 -169 -161 -147 -20 17 -30 1
-11 -17 14 -14 19 -14 45 -1 35 19 115 103 137 144 8 17 18 49 22 71 6 36 3
42 -20 58 -26 16 -29 16 -62 1 -19 -9 -55 -36 -80 -59 l-46 -42 28 56 c16 32
36 59 47 62 10 2 16 9 12 15 -10 18 -22 13 -45 -19z m-134 -336 c-8 -21 -15
-34 -15 -28 -1 15 20 76 25 71 2 -2 -2 -21 -10 -43z"/>
</g>
</svg>
